# xmcd
#
# Track frame offsets: 
#        150
#        16090
#        40399
#        62358
#        74070
#        96304
#        117182
#        140601
#        164140
#        181141
#        193891
#        211158
#        228520
#        252820
#        269784
#        293989
#        318593
#        336554
#
# Disc length: 4750 seconds
#
# Revision: 0
# Processed by: cddbd v1.5.2PL0 Copyright (c) Steve Scherf et al.
# Submitted via: ExactAudioCopy v1.3
#
DISCID=22128c12
DTITLE=Various Artist - Akella Presents - vol.191 - Electric Blues  C
DTITLE=D2
DYEAR=2019
DGENRE=Blues
TTITLE0=Kerry Kearney Band - Kiss Every Woman
TTITLE1=Raw Blues Experience - Fire in the Hole
TTITLE2=T-Bear and The Dukes - Things Ain't Like They Seem.
TTITLE3=Jeff Liberman - Dreamin'
TTITLE4=Rocky Jackson - Evil Personified
TTITLE5=The Chitlins - Kiss and Say Goodbye
TTITLE6=Backbone Blues Band - Midnight Silhouette
TTITLE7=Gary Nicholson - Upside of Lonely
TTITLE8=Blue Attitude - What Could I Do
TTITLE9=Uni Debess - Paying the Cost to Be the Boss
TTITLE10=Mick Kolassa - Mama's Got A Mojo
TTITLE11=Country Pete McGill - Hoochie Coochie Mama
TTITLE12=Chris Wragg And Greg Copeland - Why You So Cold With Me
TTITLE13=Big Wolf Band - Looking In Your Eyes
TTITLE14=Gary Smith - About To Loose You Clown
TTITLE15=Tommy Grills - Thats Alright
TTITLE16=Murray Kinsley - You're Gone
TTITLE17=Jeff Pitchell - My Jesus
EXTD=
EXTT0=
EXTT1=
EXTT2=
EXTT3=
EXTT4=
EXTT5=
EXTT6=
EXTT7=
EXTT8=
EXTT9=
EXTT10=
EXTT11=
EXTT12=
EXTT13=
EXTT14=
EXTT15=
EXTT16=
EXTT17=
PLAYORDER=
